<svg width="809" height="300" viewBox="0 0 809 300" fill="none" xmlns="http://www.w3.org/2000/svg">
<path d="M804.828 0.146454C805.023 -0.0488126 805.339 -0.0488127 805.535 0.146452L808.717 3.32843C808.912 3.52369 808.912 3.84028 808.717 4.03554C808.521 4.2308 808.205 4.2308 808.01 4.03554L805.181 1.20711L802.353 4.03554C802.157 4.2308 801.841 4.2308 801.646 4.03554C801.45 3.84028 801.45 3.52369 801.646 3.32843L804.828 0.146454ZM4.03519 299.354C3.83992 299.549 3.52332 299.549 3.32811 299.354L0.146082 296.172C-0.0491833 295.976 -0.0491484 295.66 0.146117 295.465C0.34138 295.269 0.657929 295.269 0.853197 295.465L3.68161 298.293L6.51007 295.465C6.70533 295.269 7.02188 295.269 7.21715 295.465C7.41241 295.66 7.41244 295.976 7.21717 296.172L4.03519 299.354ZM805.181 0.500004L805.681 0.500006C805.681 2.98605 805.628 5.43161 805.524 7.83735L805.024 7.81561L804.525 7.79388C804.629 5.40298 804.681 2.97191 804.681 0.500003L805.181 0.500004ZM803.784 21.7308L804.279 21.7989C803.624 26.5664 802.743 31.1606 801.644 35.5876L801.159 35.4672L800.674 35.3467C801.764 30.9554 802.638 26.3963 803.289 21.6627L803.784 21.7308ZM797.039 48.7167L797.506 48.8936C795.815 53.368 793.872 57.649 791.688 61.7445L791.247 61.5092L790.805 61.274C792.969 57.2166 794.894 52.9747 796.571 48.5399L797.039 48.7167ZM783.918 73.3335L784.325 73.6239C781.602 77.4408 778.638 81.0713 775.446 84.5241L775.079 84.1847L774.712 83.8453C777.876 80.4225 780.813 76.8247 783.511 73.0431L783.918 73.3335ZM765.03 93.8417L765.356 94.2213C761.82 97.2508 758.079 100.12 754.143 102.837L753.859 102.426L753.575 102.014C757.484 99.3158 761.197 96.4676 764.705 93.462L765.03 93.8417ZM742.11 109.772L742.356 110.207C738.315 112.497 734.111 114.659 729.752 116.701L729.54 116.249L729.328 115.796C733.664 113.764 737.846 111.613 741.863 109.337L742.11 109.772ZM716.806 121.71L716.988 122.175C712.676 123.867 708.237 125.461 703.68 126.962L703.524 126.487L703.367 126.012C707.908 124.516 712.329 122.929 716.623 121.244L716.806 121.71ZM690.225 130.517L690.359 130.998C685.887 132.243 681.317 133.412 676.655 134.508L676.54 134.021L676.426 133.534C681.076 132.441 685.633 131.276 690.091 130.035L690.225 130.517ZM662.972 136.961L663.07 137.451C658.492 138.364 653.835 139.215 649.106 140.01L649.023 139.517L648.94 139.024C653.66 138.231 658.307 137.381 662.874 136.471L662.972 136.961ZM635.348 141.631L635.418 142.126C630.792 142.782 626.104 143.39 621.358 143.953L621.3 143.456L621.241 142.96C625.979 142.398 630.66 141.791 635.278 141.136L635.348 141.631ZM607.501 144.954L607.55 145.452C602.93 145.909 598.261 146.328 593.546 146.712L593.506 146.214L593.465 145.716C598.174 145.332 602.837 144.913 607.452 144.457L607.501 144.954ZM579.515 147.246L579.549 147.744C574.94 148.05 570.294 148.326 565.612 148.575L565.586 148.075L565.559 147.576C570.237 147.328 574.879 147.052 579.482 146.747L579.515 147.246ZM551.449 148.742L551.47 149.241C546.872 149.432 542.244 149.599 537.59 149.746L537.574 149.246L537.558 148.746C542.21 148.6 546.834 148.433 551.429 148.242L551.449 148.742ZM523.537 149.625L523.548 150.125C518.893 150.231 514.215 150.318 509.516 150.39L509.508 149.89L509.5 149.39C514.197 149.319 518.873 149.231 523.525 149.125L523.537 149.625ZM495.54 150.057L495.545 150.557C490.87 150.599 486.177 150.627 481.47 150.643L481.468 150.143L481.466 149.643C486.172 149.627 490.863 149.599 495.536 149.557L495.54 150.057ZM467.494 150.162L467.494 150.662C462.835 150.658 458.164 150.645 453.484 150.625L453.487 150.125L453.489 149.625C458.167 149.645 462.837 149.658 467.495 149.662L467.494 150.162ZM439.444 150.047L439.441 150.547C434.783 150.516 430.118 150.48 425.45 150.44L425.454 149.94L425.459 149.44C430.126 149.48 434.79 149.516 439.448 149.547L439.444 150.047ZM411.442 149.815L411.437 150.315C409.101 150.294 406.764 150.272 404.427 150.25C402.09 150.228 399.753 150.206 397.417 150.185L397.421 149.685L397.426 149.185C399.762 149.206 402.099 149.228 404.436 149.25C406.773 149.272 409.11 149.294 411.446 149.315L411.442 149.815ZM383.409 149.56L383.404 150.06C378.737 150.021 374.073 149.984 369.415 149.953L369.419 149.453L369.422 148.953C374.08 148.984 378.745 149.021 383.413 149.06L383.409 149.56ZM355.376 149.375L355.374 149.875C350.696 149.855 346.026 149.842 341.368 149.839L341.369 149.339L341.369 148.839C346.028 148.842 350.699 148.855 355.379 148.875L355.376 149.375ZM327.395 149.357L327.397 149.857C322.691 149.873 318 149.901 313.327 149.943L313.322 149.443L313.318 148.943C317.993 148.901 322.686 148.873 327.393 148.857L327.395 149.357ZM299.355 149.61L299.362 150.11C294.666 150.182 289.99 150.269 285.338 150.375L285.326 149.875L285.315 149.375C289.97 149.269 294.648 149.182 299.347 149.11L299.355 149.61ZM271.289 150.254L271.305 150.754C266.653 150.9 262.029 151.067 257.434 151.258L257.413 150.758L257.393 150.259C261.991 150.068 266.618 149.901 271.273 149.754L271.289 150.254ZM243.277 151.425L243.304 151.924C238.626 152.173 233.984 152.448 229.38 152.753L229.347 152.255L229.314 151.756C233.922 151.45 238.569 151.174 243.25 150.925L243.277 151.425ZM215.357 153.286L215.398 153.785C210.689 154.168 206.025 154.587 201.411 155.043L201.362 154.546L201.312 154.048C205.933 153.591 210.602 153.172 215.317 152.788L215.357 153.286ZM187.563 156.044L187.622 156.54C182.883 157.102 178.203 157.709 173.585 158.364L173.515 157.869L173.445 157.374C178.071 156.718 182.758 156.11 187.504 155.547L187.563 156.044ZM159.84 159.983L159.923 160.476C155.202 161.269 150.556 162.119 145.988 163.029L145.89 162.539L145.793 162.049C150.371 161.136 155.027 160.285 159.757 159.49L159.84 159.983ZM132.322 165.479L132.437 165.966C127.786 167.059 123.23 168.224 118.772 169.465L118.637 168.984L118.503 168.502C122.975 167.257 127.545 166.089 132.208 164.992L132.322 165.479ZM105.339 173.013L105.495 173.488C100.955 174.984 96.5335 176.571 92.2393 178.256L92.0567 177.79L91.8741 177.325C96.1867 175.633 100.625 174.039 105.183 172.538L105.339 173.013ZM79.3225 183.251L79.5346 183.704C75.198 185.736 71.0168 187.887 66.9994 190.163L66.7529 189.728L66.5064 189.293C70.5476 187.003 74.7519 184.841 79.1103 182.799L79.3225 183.251ZM55.0036 197.074L55.2876 197.486C51.3788 200.184 47.6653 203.033 44.1574 206.038L43.8321 205.659L43.5068 205.279C47.0425 202.249 50.7836 199.38 54.7195 196.663L55.0036 197.074ZM33.7836 215.316L34.1507 215.655C30.9863 219.078 28.0495 222.676 25.3514 226.457L24.9443 226.167L24.5373 225.876C27.2605 222.06 30.2242 218.429 33.4165 214.976L33.7836 215.316ZM17.6158 237.991L18.0571 238.226C15.8937 242.284 13.9683 246.526 12.2916 250.96L11.8239 250.784L11.3561 250.607C13.048 246.132 14.991 241.851 17.1746 237.756L17.6158 237.991ZM7.7037 264.033L8.18897 264.154C7.09896 268.545 6.2246 273.104 5.57413 277.838L5.07877 277.77L4.58348 277.702C5.23858 272.934 6.11955 268.34 7.21842 263.913L7.7037 264.033ZM3.83857 291.685L4.33809 291.707C4.23405 294.097 4.18165 296.528 4.18163 299L3.68164 299L3.18165 299C3.18166 296.514 3.23436 294.069 3.33904 291.663L3.83857 291.685ZM804.828 0.146454C805.023 -0.0488126 805.339 -0.0488127 805.535 0.146452L808.717 3.32843C808.912 3.52369 808.912 3.84028 808.717 4.03554C808.521 4.2308 808.205 4.2308 808.01 4.03554L805.181 1.20711L802.353 4.03554C802.157 4.2308 801.841 4.2308 801.646 4.03554C801.45 3.84028 801.45 3.52369 801.646 3.32843L804.828 0.146454ZM4.03519 299.354C3.83992 299.549 3.52332 299.549 3.32811 299.354L0.146082 296.172C-0.0491833 295.976 -0.0491484 295.66 0.146117 295.465C0.34138 295.269 0.657929 295.269 0.853197 295.465L3.68161 298.293L6.51007 295.465C6.70533 295.269 7.02188 295.269 7.21715 295.465C7.41241 295.66 7.41244 295.976 7.21717 296.172L4.03519 299.354ZM805.181 0.500004L805.681 0.500006C805.681 2.98605 805.628 5.43161 805.524 7.83735L805.024 7.81561L804.525 7.79388C804.629 5.40298 804.681 2.97191 804.681 0.500003L805.181 0.500004ZM803.784 21.7308L804.279 21.7989C803.624 26.5664 802.743 31.1606 801.644 35.5876L801.159 35.4672L800.674 35.3467C801.764 30.9554 802.638 26.3963 803.289 21.6627L803.784 21.7308ZM797.039 48.7167L797.506 48.8936C795.815 53.368 793.872 57.649 791.688 61.7445L791.247 61.5092L790.805 61.274C792.969 57.2166 794.894 52.9747 796.571 48.5399L797.039 48.7167ZM783.918 73.3335L784.325 73.6239C781.602 77.4408 778.638 81.0713 775.446 84.5241L775.079 84.1847L774.712 83.8453C777.876 80.4225 780.813 76.8247 783.511 73.0431L783.918 73.3335ZM765.03 93.8417L765.356 94.2213C761.82 97.2508 758.079 100.12 754.143 102.837L753.859 102.426L753.575 102.014C757.484 99.3158 761.197 96.4676 764.705 93.462L765.03 93.8417ZM742.11 109.772L742.356 110.207C738.315 112.497 734.111 114.659 729.752 116.701L729.54 116.249L729.328 115.796C733.664 113.764 737.846 111.613 741.863 109.337L742.11 109.772ZM716.806 121.71L716.988 122.175C712.676 123.867 708.237 125.461 703.68 126.962L703.524 126.487L703.367 126.012C707.908 124.516 712.329 122.929 716.623 121.244L716.806 121.71ZM690.225 130.517L690.359 130.998C685.887 132.243 681.317 133.412 676.655 134.508L676.54 134.021L676.426 133.534C681.076 132.441 685.633 131.276 690.091 130.035L690.225 130.517ZM662.972 136.961L663.07 137.451C658.492 138.364 653.835 139.215 649.106 140.01L649.023 139.517L648.94 139.024C653.66 138.231 658.307 137.381 662.874 136.471L662.972 136.961ZM635.348 141.631L635.418 142.126C630.792 142.782 626.104 143.39 621.358 143.953L621.3 143.456L621.241 142.96C625.979 142.398 630.66 141.791 635.278 141.136L635.348 141.631ZM607.501 144.954L607.55 145.452C602.93 145.909 598.261 146.328 593.546 146.712L593.506 146.214L593.465 145.716C598.174 145.332 602.837 144.913 607.452 144.457L607.501 144.954ZM579.515 147.246L579.549 147.744C574.94 148.05 570.294 148.326 565.612 148.575L565.586 148.075L565.559 147.576C570.237 147.328 574.879 147.052 579.482 146.747L579.515 147.246ZM551.449 148.742L551.47 149.241C546.872 149.432 542.244 149.599 537.59 149.746L537.574 149.246L537.558 148.746C542.21 148.6 546.834 148.433 551.429 148.242L551.449 148.742ZM523.537 149.625L523.548 150.125C518.893 150.231 514.215 150.318 509.516 150.39L509.508 149.89L509.5 149.39C514.197 149.319 518.873 149.231 523.525 149.125L523.537 149.625ZM495.54 150.057L495.545 150.557C490.87 150.599 486.177 150.627 481.47 150.643L481.468 150.143L481.466 149.643C486.172 149.627 490.863 149.599 495.536 149.557L495.54 150.057ZM467.494 150.162L467.494 150.662C462.835 150.658 458.164 150.645 453.484 150.625L453.487 150.125L453.489 149.625C458.167 149.645 462.837 149.658 467.495 149.662L467.494 150.162ZM439.444 150.047L439.441 150.547C434.783 150.516 430.118 150.48 425.45 150.44L425.454 149.94L425.459 149.44C430.126 149.48 434.79 149.516 439.448 149.547L439.444 150.047ZM411.442 149.815L411.437 150.315C409.101 150.294 406.764 150.272 404.427 150.25C402.09 150.228 399.753 150.206 397.417 150.185L397.421 149.685L397.426 149.185C399.762 149.206 402.099 149.228 404.436 149.25C406.773 149.272 409.11 149.294 411.446 149.315L411.442 149.815ZM383.409 149.56L383.404 150.06C378.737 150.021 374.073 149.984 369.415 149.953L369.419 149.453L369.422 148.953C374.08 148.984 378.745 149.021 383.413 149.06L383.409 149.56ZM355.376 149.375L355.374 149.875C350.696 149.855 346.026 149.842 341.368 149.839L341.369 149.339L341.369 148.839C346.028 148.842 350.699 148.855 355.379 148.875L355.376 149.375ZM327.395 149.357L327.397 149.857C322.691 149.873 318 149.901 313.327 149.943L313.322 149.443L313.318 148.943C317.993 148.901 322.686 148.873 327.393 148.857L327.395 149.357ZM299.355 149.61L299.362 150.11C294.666 150.182 289.99 150.269 285.338 150.375L285.326 149.875L285.315 149.375C289.97 149.269 294.648 149.182 299.347 149.11L299.355 149.61ZM271.289 150.254L271.305 150.754C266.653 150.9 262.029 151.067 257.434 151.258L257.413 150.758L257.393 150.259C261.991 150.068 266.618 149.901 271.273 149.754L271.289 150.254ZM243.277 151.425L243.304 151.924C238.626 152.173 233.984 152.448 229.38 152.753L229.347 152.255L229.314 151.756C233.922 151.45 238.569 151.174 243.25 150.925L243.277 151.425ZM215.357 153.286L215.398 153.785C210.689 154.168 206.025 154.587 201.411 155.043L201.362 154.546L201.312 154.048C205.933 153.591 210.602 153.172 215.317 152.788L215.357 153.286ZM187.563 156.044L187.622 156.54C182.883 157.102 178.203 157.709 173.585 158.364L173.515 157.869L173.445 157.374C178.071 156.718 182.758 156.11 187.504 155.547L187.563 156.044ZM159.84 159.983L159.923 160.476C155.202 161.269 150.556 162.119 145.988 163.029L145.89 162.539L145.793 162.049C150.371 161.136 155.027 160.285 159.757 159.49L159.84 159.983ZM132.322 165.479L132.437 165.966C127.786 167.059 123.23 168.224 118.772 169.465L118.637 168.984L118.503 168.502C122.975 167.257 127.545 166.089 132.208 164.992L132.322 165.479ZM105.339 173.013L105.495 173.488C100.955 174.984 96.5335 176.571 92.2393 178.256L92.0567 177.79L91.8741 177.325C96.1867 175.633 100.625 174.039 105.183 172.538L105.339 173.013ZM79.3225 183.251L79.5346 183.704C75.198 185.736 71.0168 187.887 66.9994 190.163L66.7529 189.728L66.5064 189.293C70.5476 187.003 74.7519 184.841 79.1103 182.799L79.3225 183.251ZM55.0036 197.074L55.2876 197.486C51.3788 200.184 47.6653 203.033 44.1574 206.038L43.8321 205.659L43.5068 205.279C47.0425 202.249 50.7836 199.38 54.7195 196.663L55.0036 197.074ZM33.7836 215.316L34.1507 215.655C30.9863 219.078 28.0495 222.676 25.3514 226.457L24.9443 226.167L24.5373 225.876C27.2605 222.06 30.2242 218.429 33.4165 214.976L33.7836 215.316ZM17.6158 237.991L18.0571 238.226C15.8937 242.284 13.9683 246.526 12.2916 250.96L11.8239 250.784L11.3561 250.607C13.048 246.132 14.991 241.851 17.1746 237.756L17.6158 237.991ZM7.7037 264.033L8.18897 264.154C7.09896 268.545 6.2246 273.104 5.57413 277.838L5.07877 277.77L4.58348 277.702C5.23858 272.934 6.11955 268.34 7.21842 263.913L7.7037 264.033ZM3.83857 291.685L4.33809 291.707C4.23405 294.097 4.18165 296.528 4.18163 299L3.68164 299L3.18165 299C3.18166 296.514 3.23436 294.069 3.33904 291.663L3.83857 291.685Z" fill="white"/>
</svg>
