<svg width="778" height="310" viewBox="0 0 778 310" fill="none" xmlns="http://www.w3.org/2000/svg">
<path d="M4.03521 0.146403C3.83995 -0.0488606 3.52337 -0.0488607 3.32811 0.146404L0.146126 3.32838C-0.0491369 3.52365 -0.0491379 3.84023 0.146125 4.03549C0.341388 4.23075 0.657971 4.23075 0.853231 4.03549L3.68166 1.20706L6.51009 4.03549C6.70535 4.23075 7.02193 4.23075 7.21719 4.03549C7.41246 3.84023 7.41245 3.52365 7.21719 3.32838L4.03521 0.146403ZM773.328 308.96C773.523 309.155 773.839 309.155 774.035 308.96L777.217 305.778C777.412 305.582 777.412 305.266 777.217 305.07C777.021 304.875 776.705 304.875 776.51 305.07L773.681 307.899L770.853 305.07C770.657 304.875 770.341 304.875 770.146 305.07C769.95 305.266 769.95 305.582 770.146 305.778L773.328 308.96ZM3.68166 0.499956L3.18166 0.499958C3.18166 2.98642 3.23236 5.43299 3.33297 7.84032L3.83253 7.81945L4.33209 7.79858C4.23208 5.40548 4.18166 2.97282 4.18166 0.499955L3.68166 0.499956ZM5.02474 21.7531L4.52903 21.8185C5.15887 26.5959 6.00592 31.2025 7.06253 35.6444L7.54896 35.5286L8.03539 35.4129C6.98696 31.0055 6.14599 26.4326 5.52045 21.6878L5.02474 21.7531ZM11.512 48.8361L11.0418 49.0063C12.6742 53.5177 14.5499 57.8373 16.6585 61.9729L17.104 61.7458L17.5494 61.5187C15.4598 57.4204 13.6006 53.139 11.9822 48.666L11.512 48.8361ZM24.1983 73.7195L23.7852 74.0012C26.4359 77.8893 29.3227 81.59 32.4339 85.1123L32.8086 84.7812L33.1834 84.4502C30.0991 80.9586 27.2381 77.2908 24.6114 73.4379L24.1983 73.7195ZM42.6449 94.6744L42.311 95.0466C45.7876 98.1644 49.4687 101.119 53.3435 103.918L53.6364 103.513L53.9292 103.108C50.0814 100.328 46.4277 97.3953 42.9787 94.3021L42.6449 94.6744ZM65.2475 111.109L64.9925 111.539C68.981 113.904 73.1318 116.139 77.436 118.251L77.6563 117.802L77.8766 117.353C73.5945 115.252 69.4669 113.03 65.5025 110.679L65.2475 111.109ZM90.371 123.512L90.1811 123.975C94.4503 125.728 98.8449 127.381 103.357 128.94L103.521 128.468L103.684 127.995C99.1883 126.442 94.8115 124.795 90.561 123.05L90.371 123.512ZM116.862 132.709L116.722 133.189C121.151 134.483 125.677 135.699 130.295 136.843L130.415 136.357L130.535 135.872C125.93 134.732 121.417 133.519 117.002 132.229L116.862 132.709ZM144.066 139.475L143.963 139.964C148.496 140.917 153.105 141.808 157.786 142.643L157.873 142.151L157.961 141.658C153.29 140.826 148.691 139.936 144.169 138.986L144.066 139.475ZM171.655 144.415L171.58 144.91C176.189 145.606 180.858 146.253 185.585 146.855L185.648 146.359L185.711 145.863C180.992 145.262 176.33 144.616 171.73 143.921L171.655 144.415ZM199.467 147.977L199.414 148.474C204.074 148.974 208.783 149.434 213.537 149.859L213.581 149.361L213.626 148.863C208.877 148.439 204.174 147.979 199.52 147.48L199.467 147.977ZM227.419 150.49L227.382 150.989C232.03 151.333 236.716 151.648 241.436 151.934L241.466 151.435L241.497 150.936C236.781 150.65 232.099 150.336 227.456 149.991L227.419 150.49ZM255.458 152.203L255.434 152.702C260.069 152.93 264.734 153.135 269.424 153.319L269.444 152.819L269.464 152.32C264.776 152.136 260.115 151.931 255.483 151.703L255.458 152.203ZM283.542 153.31L283.527 153.81C288.155 153.952 292.806 154.076 297.475 154.185L297.487 153.686L297.499 153.186C292.831 153.076 288.183 152.952 283.557 152.81L283.542 153.31ZM311.546 153.971L311.537 154.471C316.196 154.552 320.87 154.62 325.557 154.678L325.563 154.178L325.569 153.678C320.884 153.62 316.211 153.552 311.554 153.471L311.546 153.971ZM339.574 154.324L339.569 154.824C344.248 154.864 348.937 154.896 353.633 154.923L353.635 154.423L353.638 153.923C348.943 153.896 344.256 153.864 339.578 153.824L339.574 154.324ZM367.637 154.488L367.635 154.988C372.308 155.006 376.985 155.02 381.663 155.034L381.664 154.534L381.665 154.034C376.988 154.02 372.311 154.006 367.639 153.988L367.637 154.488ZM395.699 154.572L395.698 155.072C400.375 155.086 405.052 155.1 409.724 155.118L409.726 154.618L409.728 154.118C405.055 154.1 400.378 154.086 395.7 154.072L395.699 154.572ZM423.728 154.683L423.725 155.183C428.42 155.21 433.107 155.242 437.785 155.282L437.789 154.782L437.794 154.282C433.115 154.242 428.426 154.21 423.73 154.183L423.728 154.683ZM451.8 154.928L451.794 155.428C456.479 155.486 461.152 155.554 465.809 155.635L465.817 155.135L465.826 154.635C461.167 154.554 456.493 154.486 451.806 154.428L451.8 154.928ZM479.876 155.42L479.864 155.92C484.532 156.03 489.18 156.154 493.806 156.296L493.821 155.796L493.836 155.296C489.208 155.154 484.557 155.03 479.888 154.921L479.876 155.42ZM507.919 156.287L507.899 156.786C512.587 156.97 517.248 157.175 521.88 157.403L521.905 156.903L521.929 156.404C517.294 156.176 512.629 155.971 507.939 155.787L507.919 156.287ZM535.897 157.671L535.866 158.17C540.583 158.456 545.264 158.77 549.907 159.115L549.944 158.616L549.981 158.117C545.333 157.773 540.647 157.458 535.927 157.172L535.897 157.671ZM563.782 159.745L563.737 160.243C568.486 160.667 573.189 161.127 577.843 161.626L577.896 161.129L577.949 160.632C573.289 160.132 568.58 159.672 563.826 159.247L563.782 159.745ZM591.715 162.747L591.652 163.243C596.371 163.844 601.033 164.49 605.633 165.185L605.708 164.691L605.783 164.196C601.175 163.5 596.505 162.853 591.778 162.251L591.715 162.747ZM619.49 166.955L619.402 167.448C624.073 168.28 628.672 169.17 633.194 170.12L633.297 169.631L633.4 169.142C628.867 168.189 624.258 167.298 619.577 166.463L619.49 166.955ZM646.948 172.749L646.828 173.234C651.433 174.374 655.946 175.587 660.361 176.877L660.501 176.397L660.642 175.917C656.213 174.623 651.686 173.407 647.068 172.263L646.948 172.749ZM673.842 180.638L673.679 181.111C678.175 182.664 682.552 184.311 686.802 186.056L686.992 185.594L687.182 185.131C682.913 183.378 678.518 181.725 674.006 180.166L673.842 180.638ZM699.707 191.304L699.487 191.753C703.769 193.854 707.896 196.076 711.861 198.427L712.116 197.997L712.371 197.567C708.382 195.202 704.231 192.967 699.927 190.855L699.707 191.304ZM723.727 205.593L723.434 205.998C727.282 208.778 730.935 211.711 734.384 214.804L734.718 214.432L735.052 214.059C731.576 210.942 727.894 207.987 724.02 205.188L723.727 205.593ZM744.554 224.325L744.18 224.656C747.264 228.148 750.125 231.815 752.752 235.668L753.165 235.387L753.578 235.105C750.927 231.217 748.04 227.516 744.929 223.994L744.554 224.325ZM760.259 247.36L759.814 247.587C761.903 251.686 763.762 255.967 765.381 260.44L765.851 260.27L766.321 260.1C764.689 255.588 762.813 251.269 760.704 247.133L760.259 247.36ZM769.814 273.578L769.328 273.693C770.376 278.101 771.217 282.674 771.842 287.418L772.338 287.353L772.834 287.288C772.204 282.51 771.357 277.904 770.3 273.462L769.814 273.578ZM773.53 301.287L773.031 301.308C773.131 303.701 773.181 306.133 773.181 308.606L773.681 308.606L774.181 308.606C774.181 306.12 774.13 303.673 774.03 301.266L773.53 301.287ZM4.03521 0.146403C3.83995 -0.0488606 3.52337 -0.0488607 3.32811 0.146404L0.146126 3.32838C-0.0491369 3.52365 -0.0491379 3.84023 0.146125 4.03549C0.341388 4.23075 0.657971 4.23075 0.853231 4.03549L3.68166 1.20706L6.51009 4.03549C6.70535 4.23075 7.02193 4.23075 7.21719 4.03549C7.41246 3.84023 7.41245 3.52365 7.21719 3.32838L4.03521 0.146403ZM773.328 308.96C773.523 309.155 773.839 309.155 774.035 308.96L777.217 305.778C777.412 305.582 777.412 305.266 777.217 305.07C777.021 304.875 776.705 304.875 776.51 305.07L773.681 307.899L770.853 305.07C770.657 304.875 770.341 304.875 770.146 305.07C769.95 305.266 769.95 305.582 770.146 305.778L773.328 308.96ZM3.68166 0.499956L3.18166 0.499958C3.18166 2.98642 3.23236 5.43299 3.33297 7.84032L3.83253 7.81945L4.33209 7.79858C4.23208 5.40548 4.18166 2.97282 4.18166 0.499955L3.68166 0.499956ZM5.02474 21.7531L4.52903 21.8185C5.15887 26.5959 6.00592 31.2025 7.06253 35.6444L7.54896 35.5286L8.03539 35.4129C6.98696 31.0055 6.14599 26.4326 5.52045 21.6878L5.02474 21.7531ZM11.512 48.8361L11.0418 49.0063C12.6742 53.5177 14.5499 57.8373 16.6585 61.9729L17.104 61.7458L17.5494 61.5187C15.4598 57.4204 13.6006 53.139 11.9822 48.666L11.512 48.8361ZM24.1983 73.7195L23.7852 74.0012C26.4359 77.8893 29.3227 81.59 32.4339 85.1123L32.8086 84.7812L33.1834 84.4502C30.0991 80.9586 27.2381 77.2908 24.6114 73.4379L24.1983 73.7195ZM42.6449 94.6744L42.311 95.0466C45.7876 98.1644 49.4687 101.119 53.3435 103.918L53.6364 103.513L53.9292 103.108C50.0814 100.328 46.4277 97.3953 42.9787 94.3021L42.6449 94.6744ZM65.2475 111.109L64.9925 111.539C68.981 113.904 73.1318 116.139 77.436 118.251L77.6563 117.802L77.8766 117.353C73.5945 115.252 69.4669 113.03 65.5025 110.679L65.2475 111.109ZM90.371 123.512L90.1811 123.975C94.4503 125.728 98.8449 127.381 103.357 128.94L103.521 128.468L103.684 127.995C99.1883 126.442 94.8115 124.795 90.561 123.05L90.371 123.512ZM116.862 132.709L116.722 133.189C121.151 134.483 125.677 135.699 130.295 136.843L130.415 136.357L130.535 135.872C125.93 134.732 121.417 133.519 117.002 132.229L116.862 132.709ZM144.066 139.475L143.963 139.964C148.496 140.917 153.105 141.808 157.786 142.643L157.873 142.151L157.961 141.658C153.29 140.826 148.691 139.936 144.169 138.986L144.066 139.475ZM171.655 144.415L171.58 144.91C176.189 145.606 180.858 146.253 185.585 146.855L185.648 146.359L185.711 145.863C180.992 145.262 176.33 144.616 171.73 143.921L171.655 144.415ZM199.467 147.977L199.414 148.474C204.074 148.974 208.783 149.434 213.537 149.859L213.581 149.361L213.626 148.863C208.877 148.439 204.174 147.979 199.52 147.48L199.467 147.977ZM227.419 150.49L227.382 150.989C232.03 151.333 236.716 151.648 241.436 151.934L241.466 151.435L241.497 150.936C236.781 150.65 232.099 150.336 227.456 149.991L227.419 150.49ZM255.458 152.203L255.434 152.702C260.069 152.93 264.734 153.135 269.424 153.319L269.444 152.819L269.464 152.32C264.776 152.136 260.115 151.931 255.483 151.703L255.458 152.203ZM283.542 153.31L283.527 153.81C288.155 153.952 292.806 154.076 297.475 154.185L297.487 153.686L297.499 153.186C292.831 153.076 288.183 152.952 283.557 152.81L283.542 153.31ZM311.546 153.971L311.537 154.471C316.196 154.552 320.87 154.62 325.557 154.678L325.563 154.178L325.569 153.678C320.884 153.62 316.211 153.552 311.554 153.471L311.546 153.971ZM339.574 154.324L339.569 154.824C344.248 154.864 348.937 154.896 353.633 154.923L353.635 154.423L353.638 153.923C348.943 153.896 344.256 153.864 339.578 153.824L339.574 154.324ZM367.637 154.488L367.635 154.988C372.308 155.006 376.985 155.02 381.663 155.034L381.664 154.534L381.665 154.034C376.988 154.02 372.311 154.006 367.639 153.988L367.637 154.488ZM395.699 154.572L395.698 155.072C400.375 155.086 405.052 155.1 409.724 155.118L409.726 154.618L409.728 154.118C405.055 154.1 400.378 154.086 395.7 154.072L395.699 154.572ZM423.728 154.683L423.725 155.183C428.42 155.21 433.107 155.242 437.785 155.282L437.789 154.782L437.794 154.282C433.115 154.242 428.426 154.21 423.73 154.183L423.728 154.683ZM451.8 154.928L451.794 155.428C456.479 155.486 461.152 155.554 465.809 155.635L465.817 155.135L465.826 154.635C461.167 154.554 456.493 154.486 451.806 154.428L451.8 154.928ZM479.876 155.42L479.864 155.92C484.532 156.03 489.18 156.154 493.806 156.296L493.821 155.796L493.836 155.296C489.208 155.154 484.557 155.03 479.888 154.921L479.876 155.42ZM507.919 156.287L507.899 156.786C512.587 156.97 517.248 157.175 521.88 157.403L521.905 156.903L521.929 156.404C517.294 156.176 512.629 155.971 507.939 155.787L507.919 156.287ZM535.897 157.671L535.866 158.17C540.583 158.456 545.264 158.77 549.907 159.115L549.944 158.616L549.981 158.117C545.333 157.773 540.647 157.458 535.927 157.172L535.897 157.671ZM563.782 159.745L563.737 160.243C568.486 160.667 573.189 161.127 577.843 161.626L577.896 161.129L577.949 160.632C573.289 160.132 568.58 159.672 563.826 159.247L563.782 159.745ZM591.715 162.747L591.652 163.243C596.371 163.844 601.033 164.49 605.633 165.185L605.708 164.691L605.783 164.196C601.175 163.5 596.505 162.853 591.778 162.251L591.715 162.747ZM619.49 166.955L619.402 167.448C624.073 168.28 628.672 169.17 633.194 170.12L633.297 169.631L633.4 169.142C628.867 168.189 624.258 167.298 619.577 166.463L619.49 166.955ZM646.948 172.749L646.828 173.234C651.433 174.374 655.946 175.587 660.361 176.877L660.501 176.397L660.642 175.917C656.213 174.623 651.686 173.407 647.068 172.263L646.948 172.749ZM673.842 180.638L673.679 181.111C678.175 182.664 682.552 184.311 686.802 186.056L686.992 185.594L687.182 185.131C682.913 183.378 678.518 181.725 674.006 180.166L673.842 180.638ZM699.707 191.304L699.487 191.753C703.769 193.854 707.896 196.076 711.861 198.427L712.116 197.997L712.371 197.567C708.382 195.202 704.231 192.967 699.927 190.855L699.707 191.304ZM723.727 205.593L723.434 205.998C727.282 208.778 730.935 211.711 734.384 214.804L734.718 214.432L735.052 214.059C731.576 210.942 727.894 207.987 724.02 205.188L723.727 205.593ZM744.554 224.325L744.18 224.656C747.264 228.148 750.125 231.815 752.752 235.668L753.165 235.387L753.578 235.105C750.927 231.217 748.04 227.516 744.929 223.994L744.554 224.325ZM760.259 247.36L759.814 247.587C761.903 251.686 763.762 255.967 765.381 260.44L765.851 260.27L766.321 260.1C764.689 255.588 762.813 251.269 760.704 247.133L760.259 247.36ZM769.814 273.578L769.328 273.693C770.376 278.101 771.217 282.674 771.842 287.418L772.338 287.353L772.834 287.288C772.204 282.51 771.357 277.904 770.3 273.462L769.814 273.578ZM773.53 301.287L773.031 301.308C773.131 303.701 773.181 306.133 773.181 308.606L773.681 308.606L774.181 308.606C774.181 306.12 774.13 303.673 774.03 301.266L773.53 301.287Z" fill="white"/>
</svg>
