<svg xmlns="http://www.w3.org/2000/svg" style="display: none;">
  <defs>
    <symbol id="ic:baseline-telegram" fill="none" viewBox="0 0 14 14">
      <path fill="currentColor" d="M7 1.167A5.835 5.835 0 0 0 1.167 7 5.835 5.835 0 0 0 7 12.833 5.835 5.835 0 0 0 12.833 7 5.836 5.836 0 0 0 7 1.167Zm2.707 3.966c-.088.922-.467 3.162-.66 4.195-.081.437-.245.583-.396.6-.339.03-.595-.221-.922-.437-.513-.338-.805-.548-1.3-.875-.578-.38-.205-.59.127-.928.088-.087 1.581-1.446 1.61-1.569a.116.116 0 0 0-.029-.105c-.035-.029-.081-.017-.122-.011-.053.011-.87.554-2.462 1.627-.233.158-.443.24-.63.233-.21-.005-.607-.116-.904-.215-.368-.117-.653-.181-.63-.385.012-.105.158-.21.432-.321A239.66 239.66 0 0 1 7.22 5.478c1.622-.677 1.955-.794 2.176-.794a.39.39 0 0 1 .228.07.235.235 0 0 1 .082.158c-.006.035.005.14 0 .221Z"/>
    </symbol>
    <symbol id="mdi:instagram" fill="none" viewBox="0 0 14 14">
      <path fill="currentColor" d="M4.55 1.167h4.9a3.386 3.386 0 0 1 3.383 3.383v4.9a3.383 3.383 0 0 1-3.383 3.383h-4.9A3.386 3.386 0 0 1 1.167 9.45v-4.9A3.383 3.383 0 0 1 4.55 1.167Zm-.117 1.166a2.1 2.1 0 0 0-2.1 2.1v5.134c0 1.16.94 2.1 2.1 2.1h5.133a2.1 2.1 0 0 0 2.1-2.1V4.433a2.1 2.1 0 0 0-2.1-2.1H4.433Zm5.63.875a.73.73 0 1 1 0 1.459.73.73 0 0 1 0-1.459ZM7 4.083a2.917 2.917 0 1 1 0 5.834 2.917 2.917 0 0 1 0-5.834ZM7 5.25a1.75 1.75 0 1 0 0 3.5 1.75 1.75 0 0 0 0-3.5Z"/>
    </symbol>
    <symbol id="ri:sword-line" fill="none" viewBox="0 0 14 14">
      <path fill="currentColor" d="m10.183 1.75 2.067.002.001 2.055-3.189 3.188 1.65 1.65.825-.824.826.825-1.444 1.443 1.65 1.65-.825.825-1.65-1.65-1.444 1.444-.825-.825.825-.825L7 9.058l-1.65 1.65.825.825-.825.825-1.443-1.444-1.65 1.65-.825-.824 1.65-1.651-1.444-1.443.825-.825.825.824 1.649-1.65L1.752 3.81 1.75 1.75l2.068.002L7 4.933l3.184-3.183ZM5.76 7.82 4.11 9.47l.413.412 1.65-1.65-.413-.412Zm5.323-4.903h-.419l-2.84 2.84.411.413 2.848-2.846v-.407Zm-8.167 0v.409l6.557 6.557.412-.413-6.552-6.552h-.417Z"/>
    </symbol>
    <symbol id="icon-park-outline:chess-one" fill="none" viewBox="0 0 14 14">
      <path fill="currentColor" d="m9.916 10.209.069.004a.582.582 0 0 1 .192.057l1.75.875c.198.1.324.3.324.522v1.167a.584.584 0 0 1-.585.583H2.334a.583.583 0 0 1-.584-.583v-1.167c0-.221.125-.423.323-.522l1.75-.875.062-.027a.583.583 0 0 1 .199-.034h5.832Zm-7 1.818v.223h8.168v-.223l-1.305-.652H4.22l-1.304.652Zm7-7.068a.584.584 0 1 1 0 1.166H4.083a.583.583 0 1 1 0-1.166h5.833Z"/>
      <path fill="currentColor" d="M7.927 4.982a.583.583 0 0 1 .723.396l1.535 5.25a.584.584 0 0 1-.56.747h-5.25a.584.584 0 0 1-.56-.747l1.535-5.25a.583.583 0 0 1 1.119.328l-1.316 4.503h3.694L7.53 5.706a.583.583 0 0 1 .396-.724Z"/>
      <path fill="currentColor" d="M7 .584a2.916 2.916 0 0 1 1.413 5.468l-.132.073H5.72l-.132-.073A2.917 2.917 0 0 1 7 .584ZM7 1.75a1.751 1.751 0 0 0-.967 3.209h1.935A1.75 1.75 0 0 0 7 1.749Z"/>
    </symbol>
    <symbol id="mdi:gun" fill="none" viewBox="0 0 14 14">
      <path fill="currentColor" d="M4.083 2.917h9.334V5.25h-.584v.583h-3.5a.583.583 0 0 0-.583.584V7a1.167 1.167 0 0 1-1.167 1.167H5.612a.59.59 0 0 0-.525.326l-1.43 2.853a.576.576 0 0 1-.519.32H1.167s-1.75 0 .583-3.5c0 0 1.75-2.333-.583-2.333V2.917h.583l.292-.584h1.75l.291.584ZM8.167 7v-.583a.583.583 0 0 0-.584-.584H7S6.417 6.417 7 7a1.167 1.167 0 0 1-1.167-1.167.583.583 0 0 0-.583.584V7a.583.583 0 0 0 .583.583h1.75A.583.583 0 0 0 8.167 7Z"/>
    </symbol>
    <symbol id="toman" fill="none" viewBox="0 0 18 15">
      <path fill="currentColor" fill-rule="evenodd" d="M17.47 7.805c.117.248.236.578.354.991.117.407.176.764.176 1.07-.006.602-.21 1.065-.61 1.389-.401.318-.994.478-1.778.478H11.2c-.148.655-.507 1.206-1.08 1.654-.566.448-1.303.758-2.21.929l-.408-1.142c.808-.176 1.437-.38 1.885-.61.448-.224.743-.498.884-.822-.649-.012-1.174-.077-1.575-.195-.4-.123-.68-.357-.84-.699a1.794 1.794 0 0 1-.16-.76c0-.348.075-.693.222-1.035.148-.348.351-.631.61-.85.26-.223.543-.336.85-.336.306 0 .59.115.849.345.26.23.475.54.646.929.177.39.294.814.353 1.274h4.191c.584 0 .997-.05 1.239-.15.241-.1.362-.254.362-.46-.006-.13-.074-.378-.203-.744a9.057 9.057 0 0 0-.283-.743l.937-.513Zm-8.2 1.238a.52.52 0 0 0-.336.134.874.874 0 0 0-.239.318.898.898 0 0 0-.088.372c0 .1.02.18.062.238.082.112.263.192.54.24.277.04.637.064 1.079.07a2.617 2.617 0 0 0-.398-.973c-.183-.265-.39-.399-.62-.399Z" clip-rule="evenodd"/>
      <path fill="currentColor" d="M5.192 3.396c.372.997.557 1.87.557 2.618 0 .514-.123.985-.371 1.416a2.71 2.71 0 0 1-1.053 1.026c-.448.26-.963.39-1.547.39-.549 0-1.033-.107-1.451-.319a2.323 2.323 0 0 1-.982-.893C.115 7.244 0 6.787 0 6.263a4.143 4.143 0 0 1 .212-1.3 8.97 8.97 0 0 1 .407-1.01l.85.39a9.001 9.001 0 0 0-.355.938 2.724 2.724 0 0 0-.123.813c0 .484.153.843.46 1.08.306.235.749.353 1.327.353.412 0 .772-.07 1.078-.212.313-.141.549-.33.708-.566a1.24 1.24 0 0 0 .248-.735c0-.336-.189-1.043-.566-2.122l.946-.496Zm12.525 3.666-1.132.106V7.16c-.495.047-.867.08-1.115.097v-1l1.132-.106v.01c.514-.048.885-.08 1.115-.098v1Z"/>
      <path fill="currentColor" fill-rule="evenodd" d="M7.507.132c.06.43.106 1.015.142 1.752.035.731.053 1.41.053 2.034v.548c.003.198.018.354.044.47a.49.49 0 0 0 .212.327c.112.065.284.097.514.097h1.897c.46 0 .838-.277 1.132-.831.295-.549.579-.959.85-1.23.271-.277.575-.416.91-.416.32 0 .6.103.841.31.242.2.425.463.549.787.13.318.194.655.194 1.008 0 .342-.065.661-.194.956-.13.289-.319.507-.567.655a.873.873 0 0 1-.477.123c-.454 0-1.056-.236-1.804-.708-.366.443-.85.664-1.451.664H8.43v-.001c-.627-.008-1.082-.193-1.365-.556-.283-.372-.425-.938-.425-1.698-.005-.726-.03-1.46-.07-2.203A19.575 19.575 0 0 0 6.41.37L7.507.132Zm5.728 3.937c-.265 0-.554.3-.867.902.277.171.528.306.752.407.225.094.395.142.513.142.06 0 .1-.01.124-.027a.372.372 0 0 0 .133-.177.715.715 0 0 0 .053-.283 1.19 1.19 0 0 0-.194-.655c-.13-.206-.301-.309-.514-.309Z" clip-rule="evenodd"/>
      <path fill="currentColor" d="m3.538 3.945-1.159.106v-1.15l.593-.053c.265-.024.454-.039.566-.045v1.142Z"/>
    </symbol>
    <symbol id="material-icon-theme:google" fill="none" viewBox="0 0 14 14">
      <path fill="#F44336" fill-rule="evenodd" d="M6.308.928a6.75 6.75 0 0 1 1.691 0 5.749 5.749 0 0 1 3.194 1.593A87.642 87.642 0 0 0 9.455 4.21c-1.094-.928-2.315-1.142-3.664-.643A3.86 3.86 0 0 0 3.724 5.78a68.269 68.269 0 0 1-1.88-1.45.227.227 0 0 0-.14-.024c.983-1.894 2.518-3.02 4.604-3.378" clip-rule="evenodd" opacity=".987"/>
      <path fill="#FFC107" fill-rule="evenodd" d="M1.703 4.305c.05-.008.097 0 .14.024.619.494 1.245.978 1.88 1.45a6.65 6.65 0 0 0-.188 1.212c.022.396.085.784.188 1.165L1.75 9.726c-.859-1.794-.875-3.601-.047-5.42Z" clip-rule="evenodd" opacity=".997"/>
      <path fill="#448AFF" fill-rule="evenodd" d="M11.1 11.629a22.75 22.75 0 0 0-1.927-1.523c.67-.473 1.078-1.123 1.221-1.95H7.107V5.875c1.896-.016 3.79 0 5.685.048.36 1.951-.056 3.71-1.245 5.278-.142.15-.292.294-.447.429Z" clip-rule="evenodd" opacity=".999"/>
      <path fill="#43A047" fill-rule="evenodd" d="M3.723 8.157c.718 1.783 2.033 2.615 3.946 2.497a3.447 3.447 0 0 0 1.504-.548c.67.474 1.312.981 1.926 1.523a5.792 5.792 0 0 1-3.523 1.473 5.587 5.587 0 0 1-.893 0c-2.227-.262-3.871-1.388-4.933-3.376l1.973-1.57Z" clip-rule="evenodd" opacity=".993"/>
    </symbol>
    <symbol id="IR" fill="none" viewBox="0 0 11 10">
      <path fill="currentColor" d="M1.32 9.953H0V0h1.32v9.953Z"/>
      <path fill="currentColor" fill-rule="evenodd" d="M7.014 0C8.13 0 8.989.255 9.59.766c.606.51.909 1.25.909 2.221 0 .62-.169 1.162-.506 1.627-.333.46-.795.805-1.388 1.032l2.338 4.225v.082H9.536L7.376 5.92H5.038v4.033h-1.32V0h3.296ZM5.038 4.847h2.017c.706 0 1.237-.18 1.592-.54.36-.365.54-.805.54-1.32 0-.574-.173-1.034-.519-1.38-.342-.351-.893-.527-1.654-.527H5.038v3.767Z" clip-rule="evenodd"/>
    </symbol>
    <symbol id="fluent:send-32-filled" fill="none" viewBox="0 0 14 14">
      <path fill="currentColor" d="M12.174.947a.656.656 0 0 1 .918.788l-1.25 3.886a.438.438 0 0 1-.345.297l-5.192.866c-.244.041-.244.391 0 .432l5.192.865a.437.437 0 0 1 .345.298l1.25 3.887a.656.656 0 0 1-.918.788L1.239 7.588a.656.656 0 0 1 0-1.175L12.174.947Z"/>
    </symbol>
  </defs>
</svg>
